<svg xmlns="http://www.w3.org/2000/svg" width="512" height="512" id="cola">
  <path fill="#c2c7c7" d="m366.25 421.4-9.02 29.52a9.994 9.994 0 0 1-9.56 7.08H164.33a9.994 9.994 0 0 1-9.56-7.08l-9.02-29.52a32.153 32.153 0 0 0 6.25.6h208a32.153 32.153 0 0 0 6.25-.6zm0-330.8A32.153 32.153 0 0 0 360 90H152a32.153 32.153 0 0 0-6.25.6l9.02-29.52a9.994 9.994 0 0 1 9.56-7.08h183.34a9.994 9.994 0 0 1 9.56 7.08z"></path>
  <rect width="274" height="332" x="119" y="90" fill="#e3475c" rx="33"></rect>
  <path fill="#eaeef3" d="M338.58 422h-87.46c52.26-100.91 7.11-299.71-.74-332h33.96c13.05 29.42 83.79 197.88 54.24 332zM201.33 256A98.816 98.816 0 0 1 119 353.31V158.69A98.809 98.809 0 0 1 201.33 256z"></path>
  <path fill="#fff" d="M355.82 453.79a10 10 0 0 1-8.15 4.21H164.33a9.994 9.994 0 0 1-9.56-7.08l-9.02-29.52a32.153 32.153 0 0 0 6.25.6h13.11l3.89 14.83s2.5 7.17 8 7.17zm.43-394.93L177 68c-5.5 0-8 7.17-8 7.17L165.11 90H152a32.153 32.153 0 0 0-6.25.6l9.02-29.52a9.994 9.994 0 0 1 9.56-7.08h183.34a10 10 0 0 1 8.58 4.86z" opacity=".35"></path>
  <path fill="#160204" d="M366.25 90.6A32.153 32.153 0 0 0 360 90H152a32.153 32.153 0 0 0-6.25.6l1.11-3.62L348.5 79l-8.04-25h7.21a9.994 9.994 0 0 1 9.56 7.08Z" opacity=".1"></path>
  <path fill="#fff" d="m389.08 107.41-212.45 3.75c-28.5 0-33 25.49-33 25.49l-8.59 280.64A32.995 32.995 0 0 1 119 389V123a33.033 33.033 0 0 1 33-33h208a33.018 33.018 0 0 1 29.08 17.41Z" opacity=".35"></path>
  <path fill="#160204" d="M393 123v266a33.033 33.033 0 0 1-33 33H152a33.045 33.045 0 0 1-31.45-23l214.89-3.86c28.49 0 32.99-25.5 32.99-25.5l8.61-274.89A32.994 32.994 0 0 1 393 123Z" opacity=".1"></path>
  <path fill="#160204" d="m366.25 421.4-9.02 29.52a9.994 9.994 0 0 1-9.56 7.08h-8.08l8.91-25-201.55-7.67-1.2-3.93a32.153 32.153 0 0 0 6.25.6h208a32.153 32.153 0 0 0 6.25-.6Z" opacity=".1"></path>
</svg>
