<svg width="149" height="149" viewBox="0 0 149 149" fill="none" xmlns="http://www.w3.org/2000/svg">
<g clip-path="url(#clip0_24_362)">
<mask id="mask0_24_362" style="mask-type:luminance" maskUnits="userSpaceOnUse" x="0" y="0" width="149" height="149">
<path d="M149 0H0V149H149V0Z" fill="white"/>
</mask>
<g mask="url(#mask0_24_362)">
<path d="M52.6738 25.0273H45.9805C44.534 25.0273 43.3613 26.2 43.3613 27.6465V85.5586C43.3613 87.0051 44.534 88.1777 45.9805 88.1777H52.6738C54.1203 88.1777 55.293 87.0051 55.293 85.5586V27.6465C55.293 26.2 54.1203 25.0273 52.6738 25.0273Z" fill="#F2C31D"/>
<path d="M65.4785 18.334H57.9121C56.4656 18.334 55.293 19.5066 55.293 20.9531V109.131C55.293 110.577 56.4656 111.75 57.9121 111.75H65.4785C66.925 111.75 68.0977 110.577 68.0977 109.131V20.9531C68.0977 19.5066 66.925 18.334 65.4785 18.334Z" fill="#F2C31D"/>
<path d="M79.4473 11.6406H70.7168C69.2703 11.6406 68.0977 12.8133 68.0977 14.2598V102.438C68.0977 103.884 69.2703 105.057 70.7168 105.057H79.4473C80.8938 105.057 82.0664 103.884 82.0664 102.438V14.2598C82.0664 12.8133 80.8938 11.6406 79.4473 11.6406Z" fill="#F2C31D"/>
<path d="M91.6699 18.334H83.8125C82.366 18.334 81.1934 19.5066 81.1934 20.9531V102.438C81.1934 103.884 82.366 105.057 83.8125 105.057H91.6699C93.1164 105.057 94.2891 103.884 94.2891 102.438V20.9531C94.2891 19.5066 93.1164 18.334 91.6699 18.334Z" fill="#F2C31D"/>
<path d="M103.02 23.5723H95.7441C94.2976 23.5723 93.125 24.7449 93.125 26.1914V103.602C93.125 105.048 94.2976 106.221 95.7441 106.221H103.02C104.466 106.221 105.639 105.048 105.639 103.602V26.1914C105.639 24.7449 104.466 23.5723 103.02 23.5723Z" fill="#F2C31D"/>
<path d="M114.951 30.2656H108.258C106.811 30.2656 105.639 31.4383 105.639 32.8848V103.893C105.639 105.339 106.811 106.512 108.258 106.512H114.951C116.398 106.512 117.57 105.339 117.57 103.893V32.8848C117.57 31.4383 116.398 30.2656 114.951 30.2656Z" fill="#F2C31D"/>
<path d="M42.1973 31.1387H35.5039C34.0574 31.1387 32.8848 32.3113 32.8848 33.7578V62.5684C32.8848 64.0149 34.0574 65.1875 35.5039 65.1875H42.1973C43.6438 65.1875 44.8164 64.0149 44.8164 62.5684V33.7578C44.8164 32.3113 43.6438 31.1387 42.1973 31.1387Z" fill="#F2C31D"/>
<path d="M49.7637 46.5625H43.0703C41.6238 46.5625 40.4512 47.7351 40.4512 49.1816V77.9922C40.4512 79.4387 41.6238 80.6113 43.0703 80.6113H49.7637C51.2102 80.6113 52.3828 79.4387 52.3828 77.9922V49.1816C52.3828 47.7351 51.2102 46.5625 49.7637 46.5625Z" fill="#F8D148"/>
<path d="M68.6797 31.1387H61.9863C60.5398 31.1387 59.3672 32.3113 59.3672 33.7578V91.6699C59.3672 93.1164 60.5398 94.2891 61.9863 94.2891H68.6797C70.1262 94.2891 71.2988 93.1164 71.2988 91.6699V33.7578C71.2988 32.3113 70.1262 31.1387 68.6797 31.1387Z" fill="#F8D12D"/>
<path d="M87.5957 40.7422H80.9023C79.4558 40.7422 78.2832 41.9148 78.2832 43.3613V91.6699C78.2832 93.1164 79.4558 94.2891 80.9023 94.2891H87.5957C89.0422 94.2891 90.2148 93.1164 90.2148 91.6699V43.3613C90.2148 41.9148 89.0422 40.7422 87.5957 40.7422Z" fill="#F8D12D"/>
<path d="M87.5957 40.7422H80.9023C79.4558 40.7422 78.2832 41.9148 78.2832 43.3613V91.6699C78.2832 93.1164 79.4558 94.2891 80.9023 94.2891H87.5957C89.0422 94.2891 90.2148 93.1164 90.2148 91.6699V43.3613C90.2148 41.9148 89.0422 40.7422 87.5957 40.7422Z" fill="#F8D12D"/>
<path d="M105.057 46.5625H98.3633C96.9168 46.5625 95.7441 47.7351 95.7441 49.1816V91.6699C95.7441 93.1164 96.9168 94.2891 98.3633 94.2891H105.057C106.503 94.2891 107.676 93.1164 107.676 91.6699V49.1816C107.676 47.7351 106.503 46.5625 105.057 46.5625Z" fill="#F8D12D"/>
<g filter="url(#filter0_d_24_362)">
<path d="M24.1231 58.9554C24.1231 58.9554 21.43 60.0211 21.9739 62.3894C22.5623 66.2203 35.8763 133.091 35.8763 133.091C35.8763 133.091 39.0687 140.339 44.6979 139.513C50.327 138.686 76.5719 135.871 95.6311 138.681C96.2231 138.676 111.494 143.18 113.397 130.976C115.909 118.771 127.166 63.1734 127.166 63.1734C127.166 63.1734 128.01 59.8119 124.364 59.0168C120.523 58.9749 111.738 59.0168 111.738 59.0168C111.738 59.0168 109.367 59.0395 107.824 62.218C106.28 65.3965 76.1849 126.105 41.1448 62.218C40.6169 61.5335 39.2094 59.4883 38.3954 59.0055C37.5814 58.5227 24.1231 58.9554 24.1231 58.9554Z" fill="#F82D2D"/>
</g>
</g>
</g>
<defs>
<filter id="filter0_d_24_362" x="-8.09863" y="31.7771" width="165.35" height="140.801" filterUnits="userSpaceOnUse" color-interpolation-filters="sRGB">
<feFlood flood-opacity="0" result="BackgroundImageFix"/>
<feColorMatrix in="SourceAlpha" type="matrix" values="0 0 0 0 0 0 0 0 0 0 0 0 0 0 0 0 0 0 127 0" result="hardAlpha"/>
<feOffset dy="3"/>
<feGaussianBlur stdDeviation="15"/>
<feColorMatrix type="matrix" values="0 0 0 0 0.333333 0 0 0 0 0.333333 0 0 0 0 0.333333 0 0 0 0.161 0"/>
<feBlend mode="normal" in2="BackgroundImageFix" result="effect1_dropShadow_24_362"/>
<feBlend mode="normal" in="SourceGraphic" in2="effect1_dropShadow_24_362" result="shape"/>
</filter>
<clipPath id="clip0_24_362">
<rect width="149" height="149" fill="white"/>
</clipPath>
</defs>
</svg>
