<svg width="171" height="171" viewBox="0 0 171 171" fill="none" xmlns="http://www.w3.org/2000/svg">
<g clip-path="url(#clip0_16_277)">
<path d="M0 28C0 12.536 12.536 0 28 0H143C158.464 0 171 12.536 171 28V143C171 158.464 158.464 171 143 171H28C12.536 171 0 158.464 0 143V28Z" fill="#F7DF1E"/>
<path d="M44.9621 142.9L58.0476 134.98C60.5725 139.456 62.869 143.244 68.3777 143.244C73.658 143.244 76.9879 141.178 76.9879 133.144V78.5056H93.0572V133.371C93.0572 150.015 83.3008 157.591 69.0664 157.591C56.2114 157.591 48.7495 150.933 44.9614 142.898M101.786 141.178L114.87 133.602C118.314 139.227 122.791 143.359 130.711 143.359C137.37 143.359 141.615 140.03 141.615 135.439C141.615 129.929 137.253 127.977 129.907 124.764L125.891 123.041C114.297 118.107 106.606 111.908 106.606 98.8225C106.606 86.7697 115.789 77.5864 130.137 77.5864C140.353 77.5864 147.7 81.1454 152.979 90.4428L140.467 98.4785C137.712 93.5429 134.728 91.5917 130.137 91.5917C125.43 91.5917 122.446 94.5762 122.446 98.4785C122.446 103.299 125.43 105.252 132.317 108.236L136.334 109.958C149.994 115.812 157.684 121.781 157.684 135.209C157.684 149.674 146.321 157.593 131.055 157.593C116.133 157.593 106.491 150.477 101.785 141.178" fill="black"/>
</g>
<defs>
<clipPath id="clip0_16_277">
<rect width="171" height="171" fill="white"/>
</clipPath>
</defs>
</svg>
