<svg width="39" height="49" viewBox="0 0 39 49" fill="none" xmlns="http://www.w3.org/2000/svg">
<path d="M16.6225 0.344267C11.5204 1.1301 6.93875 3.91057 3.88278 8.07569C0.826812 12.2408 -0.453926 17.4504 0.321546 22.5615C1.52042 30.404 8.20121 36.0474 15.277 42.02C17.5162 43.9116 19.8342 45.8676 21.9397 47.8832C22.2091 48.1408 22.5339 48.3331 22.8891 48.4453C23.2444 48.5575 23.6205 48.5865 23.9887 48.5303C24.3568 48.474 24.7071 48.3339 25.0126 48.1207C25.3181 47.9075 25.5706 47.6269 25.7507 47.3006C27.1579 44.748 28.7856 42.1889 30.3574 39.7147C35.3257 31.9009 40.0154 24.5193 38.8165 16.6768C38.0296 11.5674 35.2509 6.9784 31.0902 3.9165C26.9294 0.85461 21.7264 -0.430086 16.6225 0.344267ZM20.674 26.8473C19.2464 27.0655 17.7861 26.8549 16.4778 26.2421C15.1694 25.6293 14.0717 24.6419 13.3235 23.4046C12.5753 22.1674 12.2102 20.7359 12.2743 19.2912C12.3385 17.8465 12.8291 16.4535 13.6839 15.2883C14.5388 14.1232 15.7197 13.2382 17.0772 12.7452C18.4347 12.2523 19.9078 12.1736 21.3103 12.519C22.7128 12.8645 23.9817 13.6186 24.9565 14.686C25.9313 15.7534 26.5683 17.0862 26.7868 18.5158C27.0799 20.4328 26.6005 22.3875 25.4541 23.95C24.3077 25.5124 22.5883 26.5546 20.674 26.8473Z" fill="#EB5C53"/>
</svg>
