<svg width="338" height="229" viewBox="0 0 338 229" fill="none" xmlns="http://www.w3.org/2000/svg">
<mask id="mask0_7_102" style="mask-type:luminance" maskUnits="userSpaceOnUse" x="0" y="0" width="338" height="229">
<path d="M333.415 4H4V225H333.415V4Z" fill="white" stroke="white" stroke-width="8"/>
</mask>
<g mask="url(#mask0_7_102)">
<path d="M333.415 4H4V225H333.415V4Z" stroke="white" stroke-width="8" stroke-miterlimit="37.2" stroke-linecap="square"/>
<path d="M-6.73682 175.785C-6.73682 175.785 20.5927 171.178 45.6485 156.379C52.6825 152.223 67.8757 137.49 84.9115 134.276C102.406 130.975 128.996 134.995 143.007 136.885C155.076 138.513 199.48 91.7664 235.425 94.8969C271.37 98.0273 300.835 170.658 345.193 170.032" stroke="white" stroke-width="8" stroke-miterlimit="37.2" stroke-linecap="square"/>
<path d="M-7.59424 188.893C-7.59424 188.893 9.22024 188.916 28.9476 182.39C49.9441 175.443 69.4672 171.563 81.727 167.853C93.0312 165.61 111.555 153.744 136.594 150.932C151.818 149.223 179.35 156.464 189.14 155.92C216.69 154.391 226.46 139.986 257.55 150.31C272.431 155.434 291.457 168.039 308.329 173.647C337.534 183.356 362.281 185.122 362.281 184.571" stroke="white" stroke-width="8" stroke-miterlimit="37.2" stroke-linecap="square"/>
<path d="M-12.6748 202.137C-12.6748 202.137 39.4504 194.44 67.7865 184.445C100.292 173.048 142.376 178.134 164.258 180.006C175.426 180.706 199.205 174.336 225.413 173.938C245.98 173.626 268.533 178.301 284.36 184.16C320.354 197.485 358.453 196.341 358.453 196.341" stroke="white" stroke-width="8" stroke-miterlimit="37.2" stroke-linecap="square"/>
<path d="M-13.4487 208.251C-13.4487 208.251 47.9884 205.728 106.774 201.045C127.864 197.879 158.548 193.21 197.928 194.713C227.53 195.843 262.046 202.116 301.094 205.945C318.175 207.62 337.815 206.496 356.452 208.96" stroke="white" stroke-width="8" stroke-miterlimit="37.2" stroke-linecap="square"/>
</g>
</svg>
