<svg width="147" height="132" viewBox="0 0 147 132" fill="none" xmlns="http://www.w3.org/2000/svg">
<path d="M73.5002 79.0185C80.8925 79.0185 86.8852 73.0258 86.8852 65.6335C86.8852 58.2412 80.8925 52.2485 73.5002 52.2485C66.1079 52.2485 60.1152 58.2412 60.1152 65.6335C60.1152 73.0258 66.1079 79.0185 73.5002 79.0185Z" fill="#61DAFB"/>
<path d="M124.339 43.5599C121.756 42.6206 119.056 41.6813 116.238 40.8594C116.942 38.0415 117.53 35.2236 117.999 32.5232C120.465 17.0248 117.764 6.10543 110.25 1.87859C108.019 0.58706 105.554 0 102.736 0C94.5168 0 84.0671 6.10543 73.5 16.3203C62.9329 6.10543 52.4832 0 44.2644 0C41.4465 0 38.9808 0.58706 36.75 1.87859C29.2356 6.22284 26.5351 17.1422 29.0008 32.5232C29.4704 35.2236 30.0575 38.0415 30.762 40.8594C27.9441 41.6813 25.2436 42.5032 22.6605 43.5599C7.98403 49.1957 0 56.9449 0 65.6334C0 74.3219 8.10144 82.0711 22.6605 87.7069C25.2436 88.6462 27.9441 89.5855 30.762 90.4074C30.0575 93.2253 29.4704 96.0431 29.0008 98.7436C26.5351 114.242 29.2356 125.161 36.75 129.388C38.9808 130.68 41.4465 131.267 44.2644 131.267C52.6006 131.267 63.0503 125.161 73.5 114.946C84.0671 125.161 94.5168 131.267 102.736 131.267C105.554 131.267 108.019 130.68 110.25 129.388C117.764 125.044 120.465 114.125 117.999 98.7436C117.53 96.0431 116.942 93.2253 116.238 90.4074C119.056 89.5855 121.756 88.7636 124.339 87.7069C139.016 82.0711 147 74.3219 147 65.6334C147 56.9449 139.016 49.1957 124.339 43.5599ZM106.962 7.7492C111.776 10.5671 113.42 19.2556 111.424 31.5839C111.072 34.0495 110.485 36.6326 109.78 39.3331C103.675 37.9241 97.2172 36.9848 90.4073 36.3978C86.4153 30.762 82.3059 25.7133 78.1965 21.1342C86.885 12.5631 95.6909 6.69249 102.853 6.69249C104.379 6.69249 105.788 7.04473 106.962 7.7492ZM93.8123 77.3746C91.6989 81.1318 89.2332 84.889 86.6502 88.6462C82.3059 88.9984 77.9617 89.1158 73.5 89.1158C68.9209 89.1158 64.5767 88.9984 60.3498 88.6462C57.7668 84.889 55.4185 81.1318 53.3051 77.3746C51.0743 73.5 48.9609 69.508 47.0823 65.6334C48.9609 61.7588 51.0743 57.7668 53.3051 53.8922C55.4185 50.135 57.8842 46.3778 60.4673 42.6206C64.8115 42.2684 69.1557 42.151 73.6174 42.151C78.1965 42.151 82.5407 42.2684 86.7676 42.6206C89.3506 46.3778 91.6989 50.135 93.8123 53.8922C96.0431 57.7668 98.1565 61.7588 100.035 65.6334C98.0391 69.508 96.0431 73.3826 93.8123 77.3746ZM103.558 73.5C105.319 77.6094 106.728 81.6014 108.019 85.5935C104.027 86.5328 99.8003 87.2372 95.3387 87.8243C96.7476 85.5935 98.274 83.2452 99.5655 80.7796C100.974 78.3139 102.266 75.8482 103.558 73.5ZM73.5 105.319C70.6821 102.266 67.9816 98.9784 65.3986 95.5735C68.099 95.6909 70.7995 95.8083 73.5 95.8083C76.2005 95.8083 78.901 95.6909 81.6014 95.5735C79.0184 98.9784 76.3179 102.266 73.5 105.319ZM51.6613 87.7069C47.1997 87.1198 42.9728 86.4153 38.9808 85.4761C40.2724 81.6014 41.6813 77.492 43.4425 73.3826C44.734 75.7308 46.0256 78.1965 47.4345 80.5447C48.8434 83.1278 50.2524 85.3586 51.6613 87.7069ZM43.4425 57.7668C41.6813 53.6573 40.2724 49.6653 38.9808 45.6733C42.9728 44.734 47.1997 44.0296 51.6613 43.4425C50.2524 45.6733 48.726 48.0216 47.4345 50.4872C46.0256 52.9529 44.734 55.4185 43.4425 57.7668ZM73.5 25.9481C76.3179 29.0008 79.0184 32.2883 81.6014 35.6933C78.901 35.5759 76.2005 35.4585 73.5 35.4585C70.7995 35.4585 68.099 35.5759 65.3986 35.6933C67.9816 32.2883 70.6821 29.0008 73.5 25.9481ZM99.5655 50.6046L95.3387 43.5599C99.8003 44.147 104.027 44.8514 108.019 45.7907C106.728 49.6653 105.319 53.7748 103.558 57.8842C102.266 55.4185 100.974 52.9529 99.5655 50.6046ZM35.5759 31.5839C33.5799 19.2556 35.2236 10.5671 40.0375 7.7492C41.2117 7.04473 42.6206 6.69249 44.147 6.69249C51.1917 6.69249 59.9976 12.4457 68.8035 21.1342C64.6941 25.5958 60.5847 30.762 56.5926 36.3978C49.7827 36.9848 43.3251 38.0415 37.2196 39.3331C36.5152 36.6326 36.0455 34.0495 35.5759 31.5839ZM6.57508 65.6334C6.57508 60.115 13.2676 54.2444 25.0088 49.9002C27.357 48.9609 29.9401 48.139 32.5232 47.4345C34.4018 53.3051 36.75 59.528 39.5679 65.7508C36.75 71.9736 34.2843 78.0791 32.5232 83.9497C16.3203 79.2532 6.57508 72.2085 6.57508 65.6334ZM40.0375 123.518C35.2236 120.7 33.5799 112.011 35.5759 99.6829C35.9281 97.2173 36.5152 94.6342 37.2196 91.9337C43.3251 93.3427 49.7827 94.282 56.5926 94.869C60.5847 100.505 64.6941 105.554 68.8035 110.133C60.115 118.704 51.3091 124.574 44.147 124.574C42.6206 124.574 41.2117 124.222 40.0375 123.518ZM111.424 99.6829C113.42 112.011 111.776 120.7 106.962 123.518C105.788 124.222 104.379 124.574 102.853 124.574C95.8083 124.574 87.0024 118.821 78.1965 110.133C82.3059 105.671 86.4153 100.505 90.4073 94.869C97.2172 94.282 103.675 93.2253 109.78 91.9337C110.485 94.6342 110.954 97.2173 111.424 99.6829ZM121.991 81.3666C119.643 82.3059 117.06 83.1278 114.477 83.8323C112.598 77.9617 110.25 71.7388 107.432 65.516C110.25 59.2931 112.716 53.1877 114.477 47.3171C130.68 52.0136 140.425 59.0583 140.425 65.6334C140.425 71.1518 133.615 77.0224 121.991 81.3666Z" fill="#61DAFB"/>
</svg>
