<svg width="153" height="271" viewBox="0 0 153 271" fill="none" xmlns="http://www.w3.org/2000/svg">
<path d="M117.333 136.648C120.693 121.767 119.533 101.643 128.88 93.2005C149.577 74.4456 129.918 44.1566 152.155 28.163C152.302 28.0286 150.652 25.0107 149.516 23.5812C141.208 13.2201 126.204 13.4278 116.637 0C107.388 19.5614 83.3301 13.8188 74.3131 29.2748C64.9417 45.4273 51.3917 58.0487 41.6171 73.5659C29.8754 92.1253 14.2972 109.61 8.11481 129.916C0.967152 153.29 -4.90981 178.826 10.6806 203.849C17.6084 214.955 21.6404 227.027 34.6161 232.659C44.3663 236.911 47.7507 245.696 49.0703 255.129C50.0477 262.154 46.8954 272.197 58.5516 270.866C67.1044 269.925 67.0066 261.03 66.4323 254.114C65.1983 239.049 68.5461 223.447 78.4062 214.075C101.059 192.376 110.784 165.679 117.333 136.648Z" fill="#0CAC4E"/>
</svg>
